<svg width="24" height="24" viewBox="0 0 24 24" fill="none" xmlns="http://www.w3.org/2000/svg">
<path d="M12.489 18.5334C12.1856 18.3635 11.8156 18.3635 11.5122 18.5334L6.83893 21.1493C6.09432 21.5661 5.20336 20.9188 5.36966 20.0818L6.41339 14.8289C6.48117 14.4878 6.36685 14.136 6.11151 13.8999L2.17961 10.2638C1.55311 9.6844 1.89342 8.63701 2.74082 8.53653L8.05907 7.90597C8.40443 7.86502 8.70372 7.64758 8.84938 7.33177L11.0925 2.46867C11.45 1.6938 12.5512 1.6938 12.9086 2.46867L15.1517 7.33177C15.2974 7.64757 15.5967 7.86502 15.9421 7.90597L21.2603 8.53654C22.1077 8.63701 22.448 9.68439 21.8215 10.2638L17.8897 13.8999C17.6343 14.136 17.52 14.4878 17.5878 14.8289L18.6315 20.0818C18.7978 20.9187 17.9068 21.5661 17.1622 21.1493L12.489 18.5334Z" fill="#F9FAFB"/>
</svg>
